<?xml version="1.0" encoding="UTF-8" standalone="no"?>
<!DOCTYPE svg PUBLIC "-//W3C//DTD SVG 1.1//EN" "http://www.w3.org/Graphics/SVG/1.1/DTD/svg11.dtd">
<svg width="100%" height="100%" viewBox="0 0 1214 390" version="1.1" xmlns="http://www.w3.org/2000/svg" xmlns:xlink="http://www.w3.org/1999/xlink" xml:space="preserve" xmlns:serif="http://www.serif.com/" style="fill-rule:evenodd;clip-rule:evenodd;stroke-linecap:round;stroke-linejoin:round;stroke-miterlimit:1.5;">
    <g id="ArtBoard1" transform="matrix(1,0,0,1,-220.524,-374.513)">
        <rect x="220.524" y="374.513" width="1213.18" height="389.637" style="fill:none;"/>
        <g transform="matrix(1,0,0,1,8.56388,-7.97588)">
            <g transform="matrix(1,0,0,1,-28.2098,-28.0359)">
                <g transform="matrix(300,0,0,300,262.512,662.392)">
                    <path d="M0.297,0.012C0.408,0.012 0.507,-0.085 0.507,-0.251C0.507,-0.401 0.44,-0.498 0.314,-0.498C0.26,-0.498 0.206,-0.469 0.162,-0.43L0.164,-0.518L0.164,-0.712L0.082,-0.712L0.082,0L0.148,0L0.155,-0.05L0.158,-0.05C0.201,-0.011 0.252,0.012 0.297,0.012ZM0.283,-0.057C0.251,-0.057 0.207,-0.071 0.164,-0.108L0.164,-0.363C0.21,-0.406 0.253,-0.429 0.294,-0.429C0.386,-0.429 0.422,-0.357 0.422,-0.25C0.422,-0.13 0.363,-0.057 0.283,-0.057Z" style="fill:white;fill-rule:nonzero;"/>
                </g>
                <g transform="matrix(300,0,0,300,908.412,662.392)">
                    <path d="M0.096,0L0.178,0L0.178,-0.419L0.281,-0.419L0.281,-0.486L0.178,-0.486L0.178,-0.563C0.178,-0.625 0.2,-0.657 0.246,-0.657C0.264,-0.657 0.283,-0.653 0.301,-0.645L0.319,-0.708C0.297,-0.717 0.268,-0.724 0.238,-0.724C0.141,-0.724 0.096,-0.662 0.096,-0.563L0.096,-0.486L0.03,-0.481L0.03,-0.419L0.096,-0.419L0.096,0Z" style="fill:white;fill-rule:nonzero;"/>
                </g>
                <g transform="matrix(300,0,0,300,996.012,662.392)">
                    <path d="M0.224,0.012C0.291,0.012 0.339,-0.023 0.384,-0.076L0.387,-0.076L0.394,0L0.462,0L0.462,-0.486L0.38,-0.486L0.38,-0.141C0.334,-0.084 0.299,-0.059 0.249,-0.059C0.185,-0.059 0.158,-0.098 0.158,-0.189L0.158,-0.486L0.075,-0.486L0.075,-0.178C0.075,-0.054 0.121,0.012 0.224,0.012Z" style="fill:white;fill-rule:nonzero;"/>
                </g>
                <g transform="matrix(300,0,0,300,1159.21,662.392)">
                    <path d="M0.031,0L0.399,0L0.399,-0.067L0.135,-0.067L0.391,-0.442L0.391,-0.486L0.059,-0.486L0.059,-0.419L0.287,-0.419L0.031,-0.044L0.031,0Z" style="fill:white;fill-rule:nonzero;"/>
                </g>
                <g transform="matrix(300,0,0,300,1286.71,662.392)">
                    <path d="M0.031,0L0.399,0L0.399,-0.067L0.135,-0.067L0.391,-0.442L0.391,-0.486L0.059,-0.486L0.059,-0.419L0.287,-0.419L0.031,-0.044L0.031,0Z" style="fill:white;fill-rule:nonzero;"/>
                </g>
            </g>
            <g transform="matrix(1,0,0,1,43.4239,67.5118)">
                <path d="M507.569,536.921C507.569,536.921 566.442,525.396 589.167,669.946" style="fill:none;stroke:rgb(118,29,116);stroke-width:20.83px;"/>
            </g>
            <g transform="matrix(1,0,0,1,0.524022,0.512523)">
                <path d="M754.092,595.856C703.129,635.882 681.779,689.627 689.148,734.504" style="fill:none;stroke:rgb(118,29,116);stroke-width:20.83px;"/>
            </g>
            <g transform="matrix(1,0,0,1,4.52402,2.51252)">
                <ellipse cx="527.451" cy="563.275" rx="92.643" ry="96.042" style="fill:rgb(255,252,249);stroke:rgb(118,29,116);stroke-width:20.83px;"/>
            </g>
            <g transform="matrix(1,0,0,1,227.844,-43.029)">
                <ellipse cx="527.451" cy="563.275" rx="92.643" ry="96.042" style="fill:rgb(255,252,249);stroke:rgb(118,29,116);stroke-width:20.83px;"/>
            </g>
            <g transform="matrix(1,0,0,1,-3.49253,-31.9752)">
                <ellipse cx="765.501" cy="540.157" rx="36.404" ry="35.693"/>
            </g>
            <g transform="matrix(1,0,0,1,0.524022,0.512523)">
                <ellipse cx="535.221" cy="582.385" rx="37.246" ry="33.693"/>
            </g>
        </g>
    </g>
</svg>
